<?xml version="1.0" encoding="utf-8"?>
<svg class='oddbooks-logo' version="1.1" xmlns="http://www.w3.org/2000/svg" xmlns:xlink="http://www.w3.org/1999/xlink" x="0px" y="0px" viewBox="0 0 620 110">
<rect width="100%" height="100%" fill="#fff"></rect>
<g class="layer-1">
<g transform="translate(-1.5, -1.5)">
	<g class="odd">
		<path d="M34.8,31.9c13.8,0,24.1,10.6,24.1,24.7c0,14.2-10.5,24.9-24.3,24.9c-13.9,0-24.4-10.7-24.4-24.9C10.1,42.2,20.5,31.9,34.8,31.9z"/>
		<path d="M62.7,56.6c0-14.1,8.4-24.7,19.5-24.7c5.4,0,9,1.7,13.2,6.3V23.7l-6.8,0.1V12.8c6.1,0.1,6.1,0.1,6.8,0.1h5.2c2.6,0,3.2,0,9.7-0.1v57.1l6.7-0.2v10.9c-6-0.1-6-0.1-6.7-0.1h-5.7c-1.1,0-1.6,0-9.2,0.1v-5.5c-3.8,4.5-7.6,6.4-13.3,6.4C70.9,81.6,62.7,71.1,62.7,56.6z"/>
		<path d="M118.1,56.6c0-14.1,8.4-24.7,19.5-24.7c5.4,0,9,1.7,13.2,6.3V23.7l-6.8,0.1V12.8c6.1,0.1,6.1,0.1,6.8,0.1h5.2c2.6,0,3.2,0,9.7-0.1v57.1l6.7-0.2v10.9c-6-0.1-6-0.1-6.7-0.1H160c-1.1,0-1.6,0-9.2,0.1v-5.5c-3.8,4.5-7.6,6.4-13.3,6.4C126.2,81.6,118.1,71.1,118.1,56.6z"/>
	</g>
	<g class="books">
		<path d="M234.2,51.7v-0.2c9.4-3.3,14.8-9.9,14.8-17c0-20.3-27-21.6-39.8-21.6h-27.8l-0.5,2.4l1.6,1.5l0.6,1.3l-0.4,1.7l0.3,2.7l1.4,2l-1.6,2.1l-3.5,2.1l1.5,1.8l2.5,2.2l-0.5,1.5l3,3.2l0,2.7l-1,1.6l0,1.9l3,3.2l0.9,3.2l-1,2.4l0,2.2l-1,1.4l0.9,2.4l1.9,2.1l-1,3l1.9,2.4l-1,2.2l0.9,2.7l-1,2.7l1.7,2l-0.5,2.9l2.5,2l3.9,0.3l0.3,1.5l1.2,0.7l-0.7,2.3l1.5,0.5l0.5,0.7l-0.5,1.7l0.8,0.6l-0.6,2.2l0.8,0.6l0.5,1.4l-1.2,1.6l0.9,1.4l-0.1,1.3l0.1,0.5h10.5c16.6,0,40.5-3.5,40.5-26C251.3,64.3,246.5,56.3,234.2,51.7z"/>
		<path d="M299.9,13.1c25.8,0,45.9,18.5,45.9,42.4c0,23.9-20.1,42.4-45.9,42.4c-25.8,0-45.9-18.5-45.9-42.4C254,31.6,274.1,13.1,299.9,13.1z"/>
		<path d="M396.5,13.1c25.8,0,45.9,18.5,45.9,42.4c0,23.9-20.1,42.4-45.9,42.4c-25.8,0-45.9-18.5-45.9-42.4C350.6,31.6,370.7,13.1,396.5,13.1z"/>
		<path d="M447.6,12.8h37.7v19.7l0.2,0.1l8.5-19.8h41l-14.1,39.2l15.8,45.3h-42l-9.1-24.2l-0.2,0.1v24.1h-37.7V12.8z"/>
		<path d="M541.1,63.9c4.2,2.7,8.5,4.9,12.4,6.5c7.1,2.9,9.6-3.2,3.2-5.8c-3.5-1.4-7.1-3.4-10.3-6.2c-4.6-4.1-7.8-9.9-7.8-18.4c0-17.7,13.7-29.8,36-29.8c10.7,0,23.4,2.8,31.5,7V46c-3.6-1.8-7.1-3.2-10.4-4.4c-10.2-3.6-12.1,2.7-3.4,6.3c3.5,1.4,6.8,3,9.9,5.4c6,4.9,8.9,11.1,8.9,19c0,17-13.7,28.8-36.8,28.8c-11.1,0-24.4-2.7-33.1-7.2V63.9z"/>
	</g>
</g>
</g>
<g class="layer-2">
<g transform="translate(1.5, 1.5)">
	<g class="odd">
		<path d="M34.8,31.9c13.8,0,24.1,10.6,24.1,24.7c0,14.2-10.5,24.9-24.3,24.9c-13.9,0-24.4-10.7-24.4-24.9C10.1,42.2,20.5,31.9,34.8,31.9z"/>
		<path d="M62.7,56.6c0-14.1,8.4-24.7,19.5-24.7c5.4,0,9,1.7,13.2,6.3V23.7l-6.8,0.1V12.8c6.1,0.1,6.1,0.1,6.8,0.1h5.2c2.6,0,3.2,0,9.7-0.1v57.1l6.7-0.2v10.9c-6-0.1-6-0.1-6.7-0.1h-5.7c-1.1,0-1.6,0-9.2,0.1v-5.5c-3.8,4.5-7.6,6.4-13.3,6.4C70.9,81.6,62.7,71.1,62.7,56.6z"/>
		<path d="M118.1,56.6c0-14.1,8.4-24.7,19.5-24.7c5.4,0,9,1.7,13.2,6.3V23.7l-6.8,0.1V12.8c6.1,0.1,6.1,0.1,6.8,0.1h5.2c2.6,0,3.2,0,9.7-0.1v57.1l6.7-0.2v10.9c-6-0.1-6-0.1-6.7-0.1H160c-1.1,0-1.6,0-9.2,0.1v-5.5c-3.8,4.5-7.6,6.4-13.3,6.4C126.2,81.6,118.1,71.1,118.1,56.6z"/>
	</g>
	<g class="books">
		<path d="M234.2,51.7v-0.2c9.4-3.3,14.8-9.9,14.8-17c0-20.3-27-21.6-39.8-21.6h-27.8l-0.5,2.4l1.6,1.5l0.6,1.3l-0.4,1.7l0.3,2.7l1.4,2l-1.6,2.1l-3.5,2.1l1.5,1.8l2.5,2.2l-0.5,1.5l3,3.2l0,2.7l-1,1.6l0,1.9l3,3.2l0.9,3.2l-1,2.4l0,2.2l-1,1.4l0.9,2.4l1.9,2.1l-1,3l1.9,2.4l-1,2.2l0.9,2.7l-1,2.7l1.7,2l-0.5,2.9l2.5,2l3.9,0.3l0.3,1.5l1.2,0.7l-0.7,2.3l1.5,0.5l0.5,0.7l-0.5,1.7l0.8,0.6l-0.6,2.2l0.8,0.6l0.5,1.4l-1.2,1.6l0.9,1.4l-0.1,1.3l0.1,0.5h10.5c16.6,0,40.5-3.5,40.5-26C251.3,64.3,246.5,56.3,234.2,51.7z"/>
		<path d="M299.9,13.1c25.8,0,45.9,18.5,45.9,42.4c0,23.9-20.1,42.4-45.9,42.4c-25.8,0-45.9-18.5-45.9-42.4C254,31.6,274.1,13.1,299.9,13.1z"/>
		<path d="M396.5,13.1c25.8,0,45.9,18.5,45.9,42.4c0,23.9-20.1,42.4-45.9,42.4c-25.8,0-45.9-18.5-45.9-42.4C350.6,31.6,370.7,13.1,396.5,13.1z"/>
		<path d="M447.6,12.8h37.7v19.7l0.2,0.1l8.5-19.8h41l-14.1,39.2l15.8,45.3h-42l-9.1-24.2l-0.2,0.1v24.1h-37.7V12.8z"/>
		<path d="M541.1,63.9c4.2,2.7,8.5,4.9,12.4,6.5c7.1,2.9,9.6-3.2,3.2-5.8c-3.5-1.4-7.1-3.4-10.3-6.2c-4.6-4.1-7.8-9.9-7.8-18.4c0-17.7,13.7-29.8,36-29.8c10.7,0,23.4,2.8,31.5,7V46c-3.6-1.8-7.1-3.2-10.4-4.4c-10.2-3.6-12.1,2.7-3.4,6.3c3.5,1.4,6.8,3,9.9,5.4c6,4.9,8.9,11.1,8.9,19c0,17-13.7,28.8-36.8,28.8c-11.1,0-24.4-2.7-33.1-7.2V63.9z"/>
	</g>
</g>
</g>
</svg>
